<svg width="124" height="43" viewBox="0 0 124 43" fill="none" xmlns="http://www.w3.org/2000/svg">
<path d="M8.16406 14.3554L34.2157 0.36055C34.6776 0.112594 35.1959 -0.0113516 35.7199 0.000816983C36.244 0.0129855 36.756 0.160852 37.2059 0.429978C37.6557 0.699104 38.0281 1.08029 38.2866 1.53632C38.5452 1.99235 38.6811 2.50763 38.681 3.03184V6.44626C38.6813 6.55449 38.6436 6.65941 38.5744 6.74266C38.5052 6.82591 38.409 6.88221 38.3025 6.90171C38.1961 6.92121 38.0861 6.90267 37.992 6.84934C37.8978 6.79601 37.8253 6.71127 37.7873 6.60994C37.0343 4.64575 35.8034 2.52443 34.1142 3.04821C31.0992 3.9812 32.6607 8.63305 29.7537 11.1439C24.8204 15.3833 15.4283 10.5187 8.16406 14.3554Z" fill="#DD9940"/>
<path d="M38.6777 9.96875L38.6155 40.1518C38.6146 40.6124 38.4943 41.0649 38.2663 41.4652C38.0383 41.8654 37.7105 42.1997 37.3148 42.4355C36.9191 42.6713 36.469 42.8005 36.0085 42.8104C35.548 42.8204 35.0927 42.7108 34.6872 42.4924L30.8112 40.4005C30.7303 40.3563 30.6676 40.2851 30.634 40.1993C30.6004 40.1135 30.598 40.0186 30.6273 39.9312C30.6565 39.8438 30.7156 39.7695 30.7941 39.7213C30.8726 39.673 30.9655 39.6539 31.0567 39.6673C33.214 39.9946 35.9443 40.0143 36.2945 38.1777C36.9002 35.0842 32.0683 34.2494 31.24 30.4945C29.8487 24.1338 38.6057 18.1889 38.6777 9.96875Z" fill="#DD9940"/>
<path d="M26.9515 38.2988L1.65607 23.8424C1.16213 23.5594 0.749993 23.1532 0.459853 22.6634C0.169713 22.1737 0.0114839 21.6171 0.000601896 21.0479C-0.0102801 20.4787 0.126557 19.9165 0.397763 19.416C0.66897 18.9155 1.06528 18.4938 1.54804 18.1921L3.72829 16.8303C3.83405 16.7647 3.9592 16.7377 4.08258 16.7538C4.20597 16.7699 4.32002 16.828 4.40547 16.9185C4.49091 17.0089 4.54251 17.1261 4.55154 17.2502C4.56057 17.3743 4.52648 17.4977 4.45503 17.5996C3.28634 19.2364 2.35335 21.2006 3.61043 22.2907C5.99692 24.3466 9.1167 20.5622 12.7766 21.6982C19.0064 23.6264 19.8444 34.1773 26.9515 38.2988Z" fill="#DD9940"/>
<path d="M54.7729 30.063C54.7729 30.5857 54.6469 31.0757 54.3949 31.533C54.1522 31.9904 53.7649 32.359 53.2329 32.639C52.7102 32.919 52.0476 33.059 51.2449 33.059H49.6069V36.811H47.6469V27.039H51.2449C52.0009 27.039 52.6449 27.1697 53.1769 27.431C53.7089 27.6924 54.1056 28.0517 54.3669 28.509C54.6376 28.9664 54.7729 29.4844 54.7729 30.063ZM51.1609 31.477C51.7022 31.477 52.1036 31.3557 52.3649 31.113C52.6262 30.861 52.7569 30.511 52.7569 30.063C52.7569 29.111 52.2249 28.635 51.1609 28.635H49.6069V31.477H51.1609ZM60.5325 28.943C61.1205 28.943 61.6432 29.0737 62.1005 29.335C62.5578 29.587 62.9125 29.965 63.1645 30.469C63.4258 30.9637 63.5565 31.561 63.5565 32.261V36.811H61.5965V32.527C61.5965 31.911 61.4425 31.4397 61.1345 31.113C60.8265 30.777 60.4065 30.609 59.8745 30.609C59.3332 30.609 58.9038 30.777 58.5865 31.113C58.2785 31.4397 58.1245 31.911 58.1245 32.527V36.811H56.1645V26.451H58.1245V30.021C58.3765 29.685 58.7125 29.4237 59.1325 29.237C59.5525 29.041 60.0192 28.943 60.5325 28.943ZM66.4143 28.131C66.069 28.131 65.7797 28.0237 65.5463 27.809C65.3223 27.585 65.2103 27.3097 65.2103 26.983C65.2103 26.6564 65.3223 26.3857 65.5463 26.171C65.7797 25.947 66.069 25.835 66.4143 25.835C66.7597 25.835 67.0443 25.947 67.2683 26.171C67.5017 26.3857 67.6183 26.6564 67.6183 26.983C67.6183 27.3097 67.5017 27.585 67.2683 27.809C67.0443 28.0237 66.7597 28.131 66.4143 28.131ZM67.3803 29.055V36.811H65.4203V29.055H67.3803ZM71.2768 26.451V36.811H69.3168V26.451H71.2768ZM72.7093 32.905C72.7093 32.121 72.8633 31.4257 73.1713 30.819C73.4886 30.2124 73.9133 29.7457 74.4453 29.419C74.9866 29.0924 75.5886 28.929 76.2513 28.929C76.83 28.929 77.334 29.0457 77.7633 29.279C78.202 29.5124 78.552 29.8064 78.8133 30.161V29.055H80.7873V36.811H78.8133V35.677C78.5613 36.041 78.2113 36.3444 77.7633 36.587C77.3246 36.8204 76.816 36.937 76.2373 36.937C75.584 36.937 74.9866 36.769 74.4453 36.433C73.9133 36.097 73.4886 35.6257 73.1713 35.019C72.8633 34.403 72.7093 33.6984 72.7093 32.905ZM78.8133 32.933C78.8133 32.457 78.72 32.051 78.5333 31.715C78.3466 31.3697 78.0946 31.1084 77.7773 30.931C77.46 30.7444 77.1193 30.651 76.7553 30.651C76.3913 30.651 76.0553 30.7397 75.7473 30.917C75.4393 31.0944 75.1873 31.3557 74.9913 31.701C74.8046 32.037 74.7113 32.4384 74.7113 32.905C74.7113 33.3717 74.8046 33.7824 74.9913 34.137C75.1873 34.4824 75.4393 34.7484 75.7473 34.935C76.0646 35.1217 76.4006 35.215 76.7553 35.215C77.1193 35.215 77.46 35.1264 77.7773 34.949C78.0946 34.7624 78.3466 34.501 78.5333 34.165C78.72 33.8197 78.8133 33.409 78.8133 32.933ZM86.9996 28.943C87.9236 28.943 88.6703 29.237 89.2396 29.825C89.8089 30.4037 90.0936 31.2157 90.0936 32.261V36.811H88.1336V32.527C88.1336 31.911 87.9796 31.4397 87.6716 31.113C87.3636 30.777 86.9436 30.609 86.4116 30.609C85.8703 30.609 85.4409 30.777 85.1236 31.113C84.8156 31.4397 84.6616 31.911 84.6616 32.527V36.811H82.7016V29.055H84.6616V30.021C84.9229 29.685 85.2543 29.4237 85.6556 29.237C86.0663 29.041 86.5143 28.943 86.9996 28.943Z" fill="white"/>
</svg>
